0
SECTION
2
HEADER
9
$INSUNITS
70
4
9
$ACADVER
1
AC1014
9
$HANDSEED
5
FFFF
0
ENDSEC
0
SECTION
2
TABLES
0
TABLE
2
VPORT
5
8
100
AcDbSymbolTable
0
ENDTAB
0
TABLE
2
LTYPE
5
5
100
AcDbSymbolTable
0
LTYPE
5
14
100
AcDbSymbolTableRecord
100
AcDbLinetypeTableRecord
2
BYBLOCK
70
0
0
LTYPE
5
15
100
AcDbSymbolTableRecord
100
AcDbLinetypeTableRecord
2
BYLAYER
70
0
0
ENDTAB
0
TABLE
2
LAYER
5
2
100
AcDbSymbolTable
70
2
0
LAYER
5
50
100
AcDbSymbolTableRecord
100
AcDbLayerTableRecord
2
0
70
0
6
CONTINUOUS
0
ENDTAB
0
TABLE
2
STYLE
5
3
100
AcDbSymbolTable
70
1
0
STYLE
5
11
100
AcDbSymbolTableRecord
100
AcDbTextStyleTableRecord
2
STANDARD
70
0
0
ENDTAB
0
TABLE
2
VIEW
5
6
100
AcDbSymbolTable
70
0
0
ENDTAB
0
TABLE
2
UCS
5
7
100
AcDbSymbolTable
70
0
0
ENDTAB
0
TABLE
2
APPID
5
9
100
AcDbSymbolTable
70
2
0
APPID
5
12
100
AcDbSymbolTableRecord
100
AcDbRegAppTableRecord
2
ACAD
70
0
0
ENDTAB
0
TABLE
2
DIMSTYLE
5
A
100
AcDbSymbolTable
70
1
0
ENDTAB
0
TABLE
2
BLOCK_RECORD
5
1
100
AcDbSymbolTable
70
1
0
BLOCK_RECORD
5
1F
100
AcDbSymbolTableRecord
100
AcDbBlockTableRecord
2
*MODEL_SPACE
0
BLOCK_RECORD
5
1B
100
AcDbSymbolTableRecord
100
AcDbBlockTableRecord
2
*PAPER_SPACE
0
ENDTAB
0
ENDSEC
0
SECTION
2
BLOCKS
0
BLOCK
5
20
100
AcDbEntity
100
AcDbBlockBegin
2
*MODEL_SPACE
0
ENDBLK
5
21
100
AcDbEntity
100
AcDbBlockEnd
0
BLOCK
5
1C
100
AcDbEntity
100
AcDbBlockBegin
2
*PAPER_SPACE
0
ENDBLK
5
1D
100
AcDbEntity
100
AcDbBlockEnd
0
ENDSEC
0
SECTION
2
ENTITIES
0
LINE
5
100
100
AcDbEntity
8
0
100
AcDbLine
10
-210.00000000000017
20
0.4357787137383351
30
0
11
209.99999999999983
21
0.4357787137382732
31
-8.3816471179732504e-29
0
LINE
5
101
100
AcDbEntity
8
0
100
AcDbLine
10
209.99999999999983
20
0.4357787137382732
30
0
11
249.15785766601539
21
297.8692371258814
31
0
0
LWPOLYLINE
5
102
100
AcDbEntity
8
0
100
AcDbPolyline
90
6
70
1
43
0.0
10
249.15785766601539
20
297.8692371258814
10
282.37126052203797
20
293.4966096865096
10
204.05554519000663
20
-301.37030713777682
10
170.84214233398424
20
-296.99767969840502
10
159.44052642817795
20
-295.49662848787358
10
237.75624176021651
20
299.37028833641205
0
LINE
5
103
100
AcDbEntity
8
0
100
AcDbLine
10
-210.00000000000017
20
0.43577871373834132
30
0
11
-249.15785766601527
21
297.86923712588157
31
0
0
LWPOLYLINE
5
104
100
AcDbEntity
8
0
100
AcDbPolyline
90
6
70
1
43
0.0
10
-249.15785766601527
20
297.86923712588157
10
-282.37126052203791
20
293.49660968650971
10
-204.05554519000623
20
-301.37030713777631
10
-170.84214233398481
20
-296.99767969840474
10
-159.44052642818909
20
-295.49662848787466
10
-237.75624176021643
20
299.37028833641216
0
LINE
5
105
100
AcDbEntity
8
0
100
AcDbLine
10
-170.84214233398481
20
-296.99767969840474
30
0
11
-210.00000000000017
21
0.43577871373834132
31
0
0
LINE
5
106
100
AcDbEntity
8
0
100
AcDbLine
10
170.84214233398424
20
-296.99767969840502
30
0
11
209.99999999999983
21
0.4357787137382732
31
0
0
ARC
5
107
100
AcDbEntity
8
0
100
AcDbCircle
10
-7.1653631875404562e-13
20
-1506.5676628398323
30
0
40
1821.521318567146
210
0
220
-0
230
1
100
AcDbArc
50
82.499999999999986
51
97.499999999999957
0
LINE
5
108
100
AcDbEntity
8
0
100
AcDbLine
10
231.88256311031358
20
254.75526957459061
30
0
11
276.49758187213564
21
248.88159092468808
31
0
0
LINE
5
109
100
AcDbEntity
8
0
100
AcDbLine
10
-231.88256311031438
20
254.75526957459084
30
0
11
-276.49758187213519
21
248.88159092468442
31
0
0
ARC
5
110
100
AcDbEntity
8
0
100
AcDbCircle
10
2.7545343210512599e-14
20
-1506.5676628398294
30
0
40
1776.5213185671428
210
0
220
-0
230
1
100
AcDbArc
50
82.500000000000028
51
97.500000000000014
0
LWPOLYLINE
5
111
100
AcDbEntity
8
0
100
AcDbPolyline
90
4
70
1
43
0.0
10
283.43107449323509
20
-291.39406797503023
10
277.33119297228393
20
-337.72726812493818
42
-0.069669326826135691
10
-277.33119297228268
20
-337.72726812493687
10
-283.43107449323469
20
-291.39406797502971
42
0.072873723211492922
0
LINE
5
112
100
AcDbEntity
8
0
100
AcDbLine
10
-159.44052642818909
20
-295.49662848787472
30
0
11
-158.10444698155155
21
-305.64515943959952
31
0
0
LINE
5
113
100
AcDbEntity
8
0
100
AcDbLine
10
159.44052642817795
20
-295.49662848787358
30
0
11
158.10444698153918
21
-305.64515943960123
31
0
0
LINE
5
114
100
AcDbEntity
8
0
100
AcDbLine
10
198.59838409419723
20
1.9368299242692855
30
0
11
198.40076695332417
21
0.43577871373827509
31
0
0
LINE
5
115
100
AcDbEntity
8
0
100
AcDbLine
10
189.18509212220559
20
-69.56422128626167
30
0
11
-189.18509212221255
21
-69.564221286261613
31
0
0
LWPOLYLINE
5
116
100
AcDbEntity
8
0
100
AcDbPolyline
90
4
70
1
43
0.0
10
-283.43107449323475
20
-291.39406797502954
10
283.43107449323509
20
-291.39406797503023
10
283.43107449323503
20
-361.39406797502994
10
-283.43107449323486
20
-361.39406797502966
0
ENDSEC
0
SECTION
2
OBJECTS
0
DICTIONARY
5
C
100
AcDbDictionary
3
ACAD_GROUP
350
D
3
ACAD_MLINESTYLE
350
17
0
DICTIONARY
5
D
100
AcDbDictionary
0
DICTIONARY
5
1A
330
C
100
AcDbDictionary
0
DICTIONARY
5
17
100
AcDbDictionary
0
ENDSEC
0
EOF
