0
SECTION
2
HEADER
9
$INSUNITS
70
4
9
$ACADVER
1
AC1014
9
$HANDSEED
5
FFFF
0
ENDSEC
0
SECTION
2
TABLES
0
TABLE
2
VPORT
5
8
100
AcDbSymbolTable
0
ENDTAB
0
TABLE
2
LTYPE
5
5
100
AcDbSymbolTable
0
LTYPE
5
14
100
AcDbSymbolTableRecord
100
AcDbLinetypeTableRecord
2
BYBLOCK
70
0
0
LTYPE
5
15
100
AcDbSymbolTableRecord
100
AcDbLinetypeTableRecord
2
BYLAYER
70
0
0
ENDTAB
0
TABLE
2
LAYER
5
2
100
AcDbSymbolTable
70
2
0
LAYER
5
50
100
AcDbSymbolTableRecord
100
AcDbLayerTableRecord
2
0
70
0
6
CONTINUOUS
0
ENDTAB
0
TABLE
2
STYLE
5
3
100
AcDbSymbolTable
70
1
0
STYLE
5
11
100
AcDbSymbolTableRecord
100
AcDbTextStyleTableRecord
2
STANDARD
70
0
0
ENDTAB
0
TABLE
2
VIEW
5
6
100
AcDbSymbolTable
70
0
0
ENDTAB
0
TABLE
2
UCS
5
7
100
AcDbSymbolTable
70
0
0
ENDTAB
0
TABLE
2
APPID
5
9
100
AcDbSymbolTable
70
2
0
APPID
5
12
100
AcDbSymbolTableRecord
100
AcDbRegAppTableRecord
2
ACAD
70
0
0
ENDTAB
0
TABLE
2
DIMSTYLE
5
A
100
AcDbSymbolTable
70
1
0
ENDTAB
0
TABLE
2
BLOCK_RECORD
5
1
100
AcDbSymbolTable
70
1
0
BLOCK_RECORD
5
1F
100
AcDbSymbolTableRecord
100
AcDbBlockTableRecord
2
*MODEL_SPACE
0
BLOCK_RECORD
5
1B
100
AcDbSymbolTableRecord
100
AcDbBlockTableRecord
2
*PAPER_SPACE
0
ENDTAB
0
ENDSEC
0
SECTION
2
BLOCKS
0
BLOCK
5
20
100
AcDbEntity
100
AcDbBlockBegin
2
*MODEL_SPACE
0
ENDBLK
5
21
100
AcDbEntity
100
AcDbBlockEnd
0
BLOCK
5
1C
100
AcDbEntity
100
AcDbBlockBegin
2
*PAPER_SPACE
0
ENDBLK
5
1D
100
AcDbEntity
100
AcDbBlockEnd
0
ENDSEC
0
SECTION
2
ENTITIES
0
LWPOLYLINE
5
100
100
AcDbEntity
8
0
100
AcDbPolyline
90
4
70
1
43
0.0
10
382.07761469340682
20
723.82126524421915
10
500.22656991535359
20
656.20589930394863
10
616.95204374908394
20
723.82126524421915
10
500.22656991535359
20
595.35206995770488
0
LWPOLYLINE
5
101
100
AcDbEntity
8
0
100
AcDbPolyline
90
3
70
1
43
0.0
10
500.22656991535359
20
591.43278107916717
10
547.91514008720605
20
181.01738331782292
10
451.70899079400698
20
181.01738331782292
0
LWPOLYLINE
5
102
100
AcDbEntity
8
0
100
AcDbPolyline
90
3
70
1
43
0.0
10
500.97807351874462
20
66.648807382371032
10
558.24342731830268
20
176.01738331782292
10
442.28574648860047
20
176.01738331782292
0
LWPOLYLINE
5
103
100
AcDbEntity
8
0
100
AcDbPolyline
90
3
70
1
43
0.0
10
504.70423099480996
20
62.9861431566055
10
594.48940506760528
20
234.4628909093467
10
560.14899443249317
20
62.986143156605515
0
LWPOLYLINE
5
104
100
AcDbEntity
8
0
100
AcDbPolyline
90
3
70
1
43
0.0
10
565.32222639416273
20
63.355430974231375
10
570.68957179071685
20
90.156943118226025
10
598.58978534170251
20
63.355430974231375
0
LWPOLYLINE
5
105
100
AcDbEntity
8
0
100
AcDbPolyline
90
3
70
1
43
0.0
10
497.05937489900123
20
63.377040899497175
10
405.41087284209993
20
234.15687982857258
10
441.06859171958081
20
63.377040899497175
0
LWPOLYLINE
5
106
100
AcDbEntity
8
0
100
AcDbPolyline
90
3
70
1
43
0.0
10
402.14282885108639
20
63.355430974231375
10
429.94845159065403
20
92.172554979554604
10
435.96527953172063
20
63.355430974231375
0
LWPOLYLINE
5
107
100
AcDbEntity
8
0
100
AcDbPolyline
90
5
70
1
43
0.0
10
87.78350543775295
20
212.4447139740202
10
237.71467770939512
20
635.22910720485436
10
140.0565675532896
20
632.09147707079057
10
271.96294553514286
20
711.76775463004549
10
165.9915088491519
20
212.4447139740202
0
LWPOLYLINE
5
108
100
AcDbEntity
8
0
100
AcDbPolyline
90
3
70
1
43
0.0
10
233.86591113010368
20
694.597113776078
10
246.79611249106335
20
702.40742839691177
10
227.15757028113211
20
734.91960204645579
0
LINE
5
109
100
AcDbEntity
8
0
100
AcDbLine
10
275.46673584130878
20
212.44471397402012
30
0
11
272.11538448995748
21
207.44471397402015
31
0
0
LINE
5
110
100
AcDbEntity
8
0
100
AcDbLine
10
224.77710571997019
20
598.74701051638749
30
0
11
248.24472218805067
21
600.01070224883131
31
0
0
LINE
5
111
100
AcDbEntity
8
0
100
AcDbLine
10
281.28599388496201
20
755.69669431224395
30
0
11
249.06582217953186
21
703.77841607684206
31
0
0
LINE
5
112
100
AcDbEntity
8
0
100
AcDbLine
10
129.55887387748746
20
330.24525891865727
30
0
11
193.37590427106051
21
341.47627206369123
31
0
0
LWPOLYLINE
5
113
100
AcDbEntity
8
0
100
AcDbPolyline
90
4
70
1
43
0.0
10
156.07843714530327
20
207.4447139740202
10
86.010365574122929
20
207.4447139740202
10
23.512679481874486
20
31.210206549709074
10
32.242469250745451
20
35.265498083153631
0
LWPOLYLINE
5
114
100
AcDbEntity
8
0
100
AcDbPolyline
90
4
70
1
43
0.0
10
275.46673584130878
20
212.44471397402012
10
289.83259168365475
20
233.87764406139121
10
185.70005810557871
20
281.22467177400983
10
171.10287281709174
20
212.44471397402015
0
LINE
5
115
100
AcDbEntity
8
0
100
AcDbLine
10
271.96294553514286
20
711.76775463004549
30
0
11
281.28599388496201
21
755.69669431224395
31
0
0
LWPOLYLINE
5
116
100
AcDbEntity
8
0
100
AcDbPolyline
90
4
70
1
43
0.0
10
160.30842259519511
20
40.635940179414931
10
156.03304448277919
20
39.77863510773232
10
220.66760264449189
20
207.44471397402015
10
272.11538448995748
20
207.44471397402015
0
LINE
5
117
100
AcDbEntity
8
0
100
AcDbLine
10
194.49516722909527
20
346.75008735748224
30
0
11
131.47910484992872
21
335.66003474043066
31
0
0
LINE
5
118
100
AcDbEntity
8
0
100
AcDbLine
10
249.06582217953186
20
703.77841607684206
30
0
11
273.38495293159156
21
718.46806066754937
31
0
0
LINE
5
119
100
AcDbEntity
8
0
100
AcDbLine
10
87.78350543775295
20
212.4447139740202
30
0
11
86.010365574122929
21
207.4447139740202
31
0
0
LINE
5
120
100
AcDbEntity
8
0
100
AcDbLine
10
181.96173801350855
20
478.01381686180036
30
0
11
223.68705215683832
21
484.29829091532218
31
0
0
LINE
5
121
100
AcDbEntity
8
0
100
AcDbLine
10
249.31969568834106
20
605.07583162308083
30
0
11
226.58738374554051
21
603.85173480436401
31
0
0
LINE
5
122
100
AcDbEntity
8
0
100
AcDbLine
10
224.79560694501788
20
489.52165076471078
30
0
11
183.85605710622511
21
483.35552490066453
31
0
0
LWPOLYLINE
5
123
100
AcDbEntity
8
0
100
AcDbPolyline
90
5
70
1
43
0.0
10
860.39657227741759
20
632.09147707079057
10
728.49019429556415
20
711.76775463004549
10
834.46163098155523
20
212.44471397402023
10
912.66963439295409
20
212.44471397402023
10
762.73846212131207
20
635.22910720485436
0
LINE
5
124
100
AcDbEntity
8
0
100
AcDbLine
10
775.67603411073696
20
598.74701051638749
30
0
11
752.2084176426564
21
600.01070224883131
31
0
0
LINE
5
125
100
AcDbEntity
8
0
100
AcDbLine
10
818.49140181719861
20
478.01381686180036
30
0
11
776.76608767386881
21
484.29829091532218
31
0
0
LWPOLYLINE
5
126
100
AcDbEntity
8
0
100
AcDbPolyline
90
3
70
1
43
0.0
10
773.29556954957502
20
734.91960204645579
10
766.58722870060342
20
694.597113776078
10
753.65702733964383
20
702.40742839691177
0
LWPOLYLINE
5
127
100
AcDbEntity
8
0
100
AcDbPolyline
90
4
70
1
43
0.0
10
728.3377553407496
20
207.44471397402015
10
840.14471723551196
20
40.635940179414902
10
844.42009534792783
20
39.778635107732327
10
779.78553718621527
20
207.44471397402015
0
LWPOLYLINE
5
128
100
AcDbEntity
8
0
100
AcDbPolyline
90
4
70
1
43
0.0
10
710.62054814705232
20
233.87764406139121
10
814.75308172512837
20
281.22467177400983
10
829.35026701361539
20
212.44471397402015
10
724.98640398939847
20
212.44471397402009
0
LINE
5
129
100
AcDbEntity
8
0
100
AcDbLine
10
724.98640398939847
20
212.44471397402009
30
0
11
728.3377553407496
21
207.44471397402015
31
0
0
LINE
5
130
100
AcDbEntity
8
0
100
AcDbLine
10
805.95797260161191
20
346.75008735748224
30
0
11
868.97403498077836
21
335.66003474043066
31
0
0
LINE
5
131
100
AcDbEntity
8
0
100
AcDbLine
10
775.65753288568931
20
489.52165076471078
30
0
11
816.59708272448199
21
483.35552490066453
31
0
0
LINE
5
132
100
AcDbEntity
8
0
100
AcDbLine
10
912.66963439295409
20
212.44471397402023
30
0
11
914.44277425658413
21
207.44471397402023
31
0
0
LINE
5
133
100
AcDbEntity
8
0
100
AcDbLine
10
728.49019429556415
20
711.76775463004549
30
0
11
719.16714594574512
21
755.69669431224395
31
0
0
LWPOLYLINE
5
134
100
AcDbEntity
8
0
100
AcDbPolyline
90
4
70
1
43
0.0
10
968.21067057996174
20
35.265498083153659
10
844.3747026854038
20
207.44471397402023
10
914.44277425658413
20
207.44471397402023
10
976.94046034883263
20
31.210206549709056
0
LINE
5
135
100
AcDbEntity
8
0
100
AcDbLine
10
719.16714594574512
20
755.69669431224395
30
0
11
751.38731765117529
21
703.77841607684206
31
0
0
LINE
5
136
100
AcDbEntity
8
0
100
AcDbLine
10
751.1334441423661
20
605.07583162308083
30
0
11
773.86575608516659
21
603.85173480436401
31
0
0
LINE
5
137
100
AcDbEntity
8
0
100
AcDbLine
10
751.38731765117529
20
703.77841607684206
30
0
11
727.06818689911552
21
718.46806066754937
31
0
0
LINE
5
138
100
AcDbEntity
8
0
100
AcDbLine
10
870.8942659532197
20
330.24525891865727
30
0
11
807.07723555964662
21
341.47627206369123
31
0
0
ENDSEC
0
SECTION
2
OBJECTS
0
DICTIONARY
5
C
100
AcDbDictionary
3
ACAD_GROUP
350
D
3
ACAD_MLINESTYLE
350
17
0
DICTIONARY
5
D
100
AcDbDictionary
0
DICTIONARY
5
1A
330
C
100
AcDbDictionary
0
DICTIONARY
5
17
100
AcDbDictionary
0
ENDSEC
0
EOF
